# xmcd
# 
# Track frame offsets:
#     150
#     12465
#     35130
#     51405
#     75965
#     92185
#     117445
#     141772
#     159070
#     176745
#     199852
#     223672
# 
# Disc length: 3181
# 
# Revision: 3
# Processed by: cddbd v1.5.2PL0 Copyright (c) Steve Scherf et al.
# Submitted via: fre:ac v1.0.31
# 
DISCID=a50c6b0c
DTITLE=Jazziz - Jazziz August 2004 Blues Vol. 2
DYEAR=2004
DGENRE=Blues
TTITLE0=Dear Old Southland
TTITLE1=Needed Time
TTITLE2=Got My Mojo Working
TTITLE3=Henry's Boogie
TTITLE4=I'll Get Over You
TTITLE5=The River Wild
TTITLE6=Lazy Afternoon
TTITLE7=The Magic of Sam
TTITLE8=Mama's Selling Heroin
TTITLE9=Home Cookin'
TTITLE10=Agent 00 Funk
TTITLE11=When You Got a Good Friend
EXTD=
EXTT0=
EXTT1=
EXTT2=
EXTT3=
EXTT4=
EXTT5=
EXTT6=
EXTT7=
EXTT8=
EXTT9=
EXTT10=
EXTT11=
PLAYORDER=
